PathFileType	4	(X/Y/Z)	D:\luciana\Cultery.trc
DataRate	CameraRate	NumFrames	NumMarkers	Units	OrigDataRate	OrigDataStartFrame	OrigNumFrames
250.00	250.00	18	17	mm	250.00	1	2050
Frame#	Time	pelvisR			Trunk1			Trunk2			Trunk3			C7			shoulder			upperArm1			upperArm2			upperArm3			elbow			forearm1			forearm2			forearm3			wrist1			wrist2			wrist3			Hand			
		X1	Y1	Z1	X2	Y2	Z2	X3	Y3	Z3	X4	Y4	Z4	X5	Y5	Z5	X6	Y6	Z6	X7	Y7	Z7	X8	Y8	Z8	X9	Y9	Z9	X10	Y10	Z10	X11	Y11	Z11	X12	Y12	Z12	X13	Y13	Z13	X14	Y14	Z14	X15	Y15	Z15	X16	Y16	Z16	X17	Y17	Z17	

656	2.624000	1723.878860	649.806619	691.565633	1612.083912	853.404641	938.958466	1641.566515	763.028204	923.455477	1551.710129	798.382699	925.961733	1556.821346	1130.807400	829.572678	1735.301733	1054.573536	774.515390	1861.019373	884.807110	766.463161	1817.613125	875.242054	828.482151	1805.141211	885.308743	705.995142	1842.166424	751.190543	742.057145	1871.020794	701.268911	672.411263	1832.183480	657.701790	728.721499	1820.783138	753.309965	652.601182	1797.086716	700.228930	542.040646	1812.531948	627.490938	567.783892	1727.198243	718.431830	564.629912	1759.286642	637.041926	467.982709	
657	2.628000	1723.889470	649.954915	691.616893	1612.061977	853.404224	939.034998	1641.531467	763.012767	923.471808	1551.662683	798.351645	925.991297	1556.690216	1130.807638	829.665601	1735.193491	1054.661155	774.614096	1860.995173	885.009825	766.592443	1817.571521	875.371575	828.573942	1805.163860	885.508001	706.083357	1842.276216	751.433313	742.085338	1871.149063	701.690197	672.335029	1832.217932	657.961369	728.472829	1820.971012	753.837049	652.674973	1797.111750	701.140702	542.031646	1812.562346	628.332555	567.474961	1727.247596	719.308496	564.568102	1759.429932	638.387680	467.707932	
658	2.632000	1723.855615	650.014639	691.505075	1612.005830	853.381515	939.079165	1641.511798	763.012886	923.481941	1551.632404	798.330188	926.029682	1556.555271	1130.804062	829.758465	1735.068679	1054.755092	774.711013	1860.972643	885.224700	766.699612	1817.517996	875.502408	828.659475	1805.176497	885.709286	706.160545	1842.372179	751.667142	742.107987	1871.259809	702.121019	672.232866	1832.259655	658.228993	728.206038	1821.153045	754.376054	652.710617	1797.121525	702.080667	541.980863	1812.619328	629.223108	567.160130	1727.297068	720.164239	564.526677	1759.601235	639.798939	467.415571	
659	2.636000	1723.836064	650.092483	691.464365	1611.942768	853.360951	939.121544	1641.479135	763.013482	923.493087	1551.598072	798.301578	926.060140	1556.422949	1130.802512	829.861403	1734.944344	1054.864526	774.812460	1860.955358	885.448098	766.805172	1817.470312	875.635266	828.734279	1805.197358	885.914981	706.251383	1842.474699	751.907110	742.129564	1871.364832	702.554345	672.106385	1832.311869	658.505261	727.940083	1821.294069	754.899323	652.734339	1797.126532	703.115582	541.828513	1812.689304	630.168617	566.756070	1727.318287	721.026659	564.487696	1759.735823	641.170323	467.109084	
660	2.640000	1723.841906	650.221407	691.499054	1611.895323	853.350222	939.171970	1641.460180	763.009310	923.506916	1551.558971	798.268080	926.088572	1556.275010	1130.801678	829.947352	1734.820127	1054.959536	774.897873	1860.934258	885.658920	766.897082	1817.427874	875.776470	828.801513	1805.216074	886.124492	706.324339	1842.572451	752.149761	742.130041	1871.489167	703.028440	671.953261	1832.364440	658.786595	727.671981	1821.408749	755.433381	652.759731	1797.217011	704.437435	540.863872	1812.791944	631.197870	566.229165	1727.311969	722.125053	563.756526	1759.816885	642.527878	466.776371	
661	2.644000	1723.887682	650.416255	691.641092	1611.836910	853.338063	939.205766	1641.415238	762.992084	923.513830	1551.518202	798.235655	926.114500	1556.133628	1130.797029	830.035925	1734.699965	1055.044532	775.003731	1860.921144	885.871649	766.982853	1817.378879	875.910997	828.852534	1805.229306	886.330783	706.392407	1842.689037	752.396286	742.120385	1871.597052	703.489721	671.787620	1832.436442	659.078002	727.385342	1821.503162	755.965114	652.768373	1797.494411	706.204772	538.724840	1812.914133	632.305861	565.631330	1727.274895	723.461628	562.201619	1759.951591	644.022048	466.470361	
662	2.648000	1723.959923	650.672615	691.867471	1611.776114	853.325486	939.227641	1641.357064	762.976527	923.525453	1551.492572	798.215091	926.142275	1556.011200	1130.793214	830.122054	1734.579921	1055.140615	775.110960	1860.900164	886.088729	767.068982	1817.337990	876.034379	828.898430	1805.259943	886.551023	706.452727	1842.795968	752.639234	742.094994	1871.679664	703.929961	671.614408	1832.525373	659.385026	727.067888	1821.616411	756.510556	652.760625	1797.743082	707.321286	538.817465	1813.025236	633.439839	564.994574	1727.295995	724.223137	562.471032	1760.069132	645.457149	466.131032	
663	2.652000	1724.032044	650.907993	692.024589	1611.725330	853.312016	939.274192	1641.327500	762.968063	923.551142	1551.458597	798.192203	926.166773	1555.878401	1130.781412	830.197632	1734.456778	1055.233002	775.196433	1860.876322	886.305928	767.139554	1817.302465	876.164556	828.934491	1805.274606	886.770785	706.491947	1842.904091	752.883554	742.055893	1871.747017	704.376221	671.420753	1832.615852	659.704626	726.743639	1821.749449	757.082939	652.755678	1797.944546	708.263874	539.454579	1813.102484	634.497046	564.434588	1727.378726	724.946976	563.057005	1760.222316	646.889150	465.742320	
664	2.656000	1724.064112	651.095629	692.101836	1611.680269	853.303075	939.308226	1641.308784	762.970746	923.570156	1551.407814	798.157215	926.177204	1555.721402	1130.769372	830.278516	1734.338522	1055.344462	775.285482	1860.862494	886.532903	767.197251	1817.272782	876.293004	828.972757	1805.284500	886.997938	706.527531	1843.312263	753.162742	741.989732	1871.800184	704.842508	671.234608	1832.714558	660.017490	726.403177	1821.881294	757.675409	652.744114	1797.782421	709.496796	538.011253	1813.234329	635.454416	563.958824	1727.390528	726.251006	561.756670	1760.429144	648.444712	465.341598	
665	2.660000	1724.087954	651.254416	692.156017	1611.639857	853.286982	939.346254	1641.293764	762.982488	923.585773	1551.371574	798.121810	926.200271	1555.565357	1130.750895	830.371618	1734.219313	1055.453539	775.399148	1860.839367	886.757374	767.243505	1817.239165	876.427174	829.004526	1805.290699	887.260020	706.551552	1844.150782	753.511131	741.861761	1871.875763	705.352187	671.049714	1832.825303	660.342395	726.016760	1821.989179	758.272648	652.712464	1797.661781	710.216284	538.497806	1813.420653	636.229932	563.681006	1727.392673	727.000952	562.092781	1760.576963	649.914384	464.911342	
666	2.664000	1724.105358	651.401937	692.220271	1611.587286	853.273749	939.385056	1641.262412	762.986958	923.600078	1551.332593	798.096478	926.222920	1555.414438	1130.738497	830.441952	1734.092474	1055.542231	775.483489	1860.804200	886.976361	767.287314	1817.203045	876.565099	829.018056	1805.266857	887.493730	706.565320	1844.598055	753.828824	741.734743	1871.997356	705.921173	670.844674	1832.931519	660.678089	725.589335	1822.066069	758.872628	652.671874	1797.649264	710.680246	540.222347	1813.456178	637.095213	563.318372	1727.459431	727.492034	563.366354	1760.726094	651.486039	464.527458	
667	2.668000	1724.120140	651.522934	692.269564	1611.519098	853.259563	939.419568	1641.232610	762.995481	923.609018	1551.282406	798.069596	926.237941	1555.273175	1130.739450	830.535769	1733.956099	1055.637598	775.560021	1860.772133	887.192249	767.318130	1817.179441	876.700938	829.029381	1805.232286	887.704790	706.559896	1844.884396	754.152477	741.605639	1872.108936	706.489444	670.598865	1833.035946	661.015749	725.152194	1822.150111	759.473443	652.606189	1798.144579	712.277353	539.261222	1813.491702	638.043165	562.815428	1727.521181	728.597641	562.855124	1760.861993	653.074980	464.155734	
668	2.672000	1724.123359	651.610136	692.277372	1611.468434	853.245735	939.458549	1641.198874	763.005257	923.603475	1551.238894	798.040807	926.257670	1555.119753	1130.736828	830.624640	1733.831763	1055.738330	775.652289	1860.748887	887.404799	767.344594	1817.155123	876.829267	829.026937	1805.213213	887.916088	706.553578	1845.106602	754.502296	741.450429	1872.216463	707.037449	670.328856	1833.136201	661.352873	724.707425	1822.240949	760.060966	652.531683	1798.088074	713.709593	537.364483	1813.568711	639.011681	562.284291	1727.552414	730.044842	561.250329	1760.950446	654.611945	463.782400	
669	2.676000	1724.101424	651.651025	692.252159	1611.416340	853.225589	939.487517	1641.172290	763.000429	923.614144	1551.202416	798.003674	926.275313	1554.977417	1130.731940	830.707073	1733.721018	1055.832267	775.753617	1860.731959	887.625694	767.356515	1817.127109	876.953840	829.009771	1805.195570	888.135612	706.552744	1845.407128	754.848242	741.281629	1872.316003	707.574606	670.062065	1833.229542	661.676526	724.275589	1822.368741	760.646164	652.445436	1798.259377	714.784265	537.469268	1813.670158	640.006542	561.730742	1727.546692	730.843961	561.469674	1761.081219	656.211674	463.360012	
670	2.680000	1724.091291	651.701927	692.228138	1611.360550	853.214920	939.516008	1641.137719	762.998521	923.636138	1551.165104	797.972441	926.290870	1554.857254	1130.733013	830.802381	1733.609438	1055.909276	775.838614	1860.731602	887.855828	767.371237	1817.102671	877.076983	828.994989	1805.180669	888.341784	706.550539	1845.696449	755.180717	741.097450	1872.423172	708.090961	669.754744	1833.322287	662.004590	723.845720	1822.515368	761.244416	652.361274	1798.462391	715.815246	538.067281	1813.737869	641.027272	561.209738	1727.593303	731.600881	561.993897	1761.248112	657.815754	462.920308	
671	2.684000	1724.086404	651.732981	692.199051	1611.314178	853.218973	939.550400	1641.131163	762.999654	923.654199	1551.137447	797.955155	926.317871	1554.717898	1130.738735	830.890894	1733.472943	1055.993319	775.906324	1860.707998	888.096690	767.376184	1817.080855	877.194881	828.972101	1805.164576	888.544798	706.539750	1845.940351	755.514145	740.911663	1872.527838	708.596408	669.408798	1833.412766	662.340224	723.401308	1822.638988	761.865497	652.278900	1798.285484	717.157960	536.569953	1813.763380	642.081618	560.693443	1727.566481	733.017266	560.585916	1761.434674	659.460604	462.445825	
672	2.688000	1724.076509	651.784420	692.188978	1611.283660	853.215337	939.581454	1641.104817	762.986660	923.654616	1551.118851	797.932386	926.340103	1554.576874	1130.732298	830.971718	1733.352184	1056.073904	775.978744	1860.674024	888.339221	767.358065	1817.057610	877.308846	828.942120	1805.145264	888.754725	706.522822	1846.148729	755.865395	740.710914	1872.630119	709.119022	669.081926	1833.506346	662.676513	722.944975	1822.747469	762.500048	652.189374	1798.257828	718.367219	536.035120	1813.785791	643.140554	560.145378	1727.406383	734.096646	560.038805	1761.595607	661.084771	461.985409	
673	2.692000	1724.059343	651.819825	692.162335	1611.260772	853.210807	939.623833	1641.093016	762.982249	923.666000	1551.101327	797.903776	926.360250	1554.460526	1130.722880	831.067383	1733.233452	1056.161165	776.048064	1860.653758	888.583839	767.326534	1817.028999	877.423346	828.907251	1805.116534	888.976455	706.487358	1846.329689	756.210923	740.502656	1872.736216	709.651887	668.771684	1833.587646	663.015127	722.449422	1822.843671	763.121843	652.109146	1798.372984	719.457507	536.480963	1813.857555	644.236624	559.560776	1727.460861	734.920919	560.424387	1761.782408	662.763000	461.510479	
